REM MD5 80b6d74e39e55b2d35c3c8710e7d5c12
FILE "Yuukyuu Gensoukyoku 2nd Album (Japan).bin" BINARY
  TRACK 01 MODE2/2352
    INDEX 01 00:00:00
  TRACK 02 AUDIO
    INDEX 00 53:00:36
    INDEX 01 53:02:36
  TRACK 03 AUDIO
    INDEX 00 54:48:30
    INDEX 01 54:50:30
REM LEADOUT 58:26:33
